PathFileType	4	(X/Y/Z)	pose_F01_0-75.trc
DataRate	CameraRate	NumFrames	NumMarkers	Units	OrigDataRate	OrigDataStartFrame	OrigNumFrames
30	30	5	21	m	30	10	75
Frame#	Time	CHip			RHip			RKnee			RAnkle			RBigToe			RSmallToe			RHeel			LHip			LKnee			LAnkle			LBigToe			LSmallToe			LHeel			Neck			Nose			RShoulder			RElbow			RWrist			LShoulder			LElbow			LWrist			
		X1	Y1	Z1	X2	Y2	Z2	X3	Y3	Z3	X4	Y4	Z4	X5	Y5	Z5	X6	Y6	Z6	X7	Y7	Z7	X8	Y8	Z8	X9	Y9	Z9	X10	Y10	Z10	X11	Y11	Z11	X12	Y12	Z12	X13	Y13	Z13	X14	Y14	Z14	X15	Y15	Z15	X16	Y16	Z16	X17	Y17	Z17	X18	Y18	Z18	X19	Y19	Z19	X20	Y20	Z20	X21	Y21	Z21	
10	0.3333333333333333	-0.20908725657916433	1.8817929858660907	-0.5813937998976385	-0.21865452502738333	1.878239599015113	-0.5104273976304736	-0.22746856175649577	1.722572781496263	-0.4721509832211113	-0.23142715666220187	1.5586870890681446	-0.44418703953351996	-0.19510974368016062	1.5096890968565286	-0.47438479610122036	-0.20245711128698082	1.5119106910631872	-0.4339653622500721	-0.24638384370453154	1.5507360760849063	-0.4365166568124279	-0.2013282684032404	1.8834894660776758	-0.6525378489737802	-0.20977702679919338	1.7244808951635775	-0.630940654848895	-0.22269187593497036	1.570375941984897	-0.6121246374532058	-0.18383597931216009	1.533040375478968	-0.6792668387516471	-0.18808883191097733	1.5400830211397665	-0.6959102244032134	-0.22864570157059205	1.5617258456477252	-0.5922415175696643	-0.2151958231904131	2.0612543360643527	-0.589755544918448	-0.1817311497867044	2.1304828346708597	-0.6340269653853479	-0.2273972038317161	2.059172733492376	-0.48850951136542237	-0.23091723605523265	1.9621345630251907	-0.45649281314412704	-0.22307390972561025	1.880525999297292	-0.4301289046579569	-0.20128404032720534	2.064456644522149	-0.6856775492929676	-0.19317513365577083	1.9670514526223257	-0.707319901802648	-0.5904069055035218	1.8542999513977931	-0.3142056922912357
11	0.36666666666666664	-0.20935653313062264	1.8834118980784826	-0.5817610155226408	-0.2178025760784168	1.8797314618409768	-0.5075891767056634	-0.2272711242495637	1.7212950145299715	-0.472156737349378	-0.2332413877598506	1.5582555778164142	-0.4421283669112188	-0.19430192602976523	1.5107386228073338	-0.4708020087407677	-0.20234771429389498	1.5113312380160866	-0.43385461249387824	-0.24633754774979386	1.5504873960814463	-0.4365271852328315	-0.19718190472653827	1.8864509497270792	-0.6574642070616331	-0.2098469548635648	1.7218488399016436	-0.6306831886843258	-0.22270040224770543	1.5704700058503576	-0.6121233039643589	-0.18426987480044119	1.534729854298851	-0.6793256456346619	-0.18836742671655163	1.5411506739920784	-0.6959491045443831	-0.22888340039011518	1.5629902169038392	-0.5922240218001571	-0.21513454150341624	2.0613025445987776	-0.589787873264473	-0.18167584451778934	2.1315741725322748	-0.6338509919932291	-0.2273800893726556	2.059258074771367	-0.4885028425590329	-0.2299493339535417	1.963498166132311	-0.4538836153121592	-0.22148734075727552	1.8823708640299297	-0.43277148305427215	-0.19919794583485373	2.0632603468075574	-0.6873841946972706	-0.19341998673180835	1.9666698746146019	-0.7070418044395924	-0.4575658912455631	1.8633922493730877	-0.4506985572182534
12	0.4	-0.2091505389727632	1.883082647462453	-0.58170078450431	-0.21863197238153884	1.8807482028133429	-0.5109443188971814	-0.22762017961039194	1.7242173062711834	-0.47217020939874016	-0.23272254548049565	1.557919797462714	-0.4430166412555771	-0.1941663698005243	1.5097709747673576	-0.47112704754894413	-0.2044072144244558	1.5118735381051276	-0.4318188688674561	-0.24617729957668116	1.5520417009350982	-0.4371553407842377	-0.19922809993106427	1.8848015342536988	-0.655001411646108	-0.20912990614906704	1.7232508581511254	-0.6275303087634801	-0.22445884035857055	1.5712636471257142	-0.6104637356941531	-0.1844917968723856	1.5357398920321115	-0.6787913754435857	-0.18825908532645946	1.5405654354713025	-0.6958566562605911	-0.23029606364349714	1.559787215743868	-0.5903812674858947	-0.2151353678995757	2.0599195046732564	-0.5893430362493344	-0.1816538554131156	2.13157944614016	-0.6338483749775974	-0.22736315966781406	2.059182836956269	-0.48860125103168556	-0.23080925543032163	1.964689374366117	-0.4569602001531252	-0.2203722917343017	1.8832932504702602	-0.429675414427386	-0.20121812180002188	2.063172075623923	-0.6852628412064414	-0.19366483980784588	1.966288296606878	-0.7067637070765368	-0.3247248769876043	1.872484547348382	-0.5871914221452712
13	0.43333333333333335	-0.2101569630487336	1.8847645238066926	-0.5850836484569709	-0.21783770079961481	1.881488758011651	-0.5165451646391994	-0.228773971303561	1.7255095624136254	-0.4753856875718096	-0.23326537661585076	1.5613026503598864	-0.442431571762457	-0.19551867042045448	1.5113337836734173	-0.47393079288736784	-0.20443993783109166	1.5118224200245527	-0.43177718835041096	-0.24466536289006835	1.5548477836876882	-0.4389046964515888	-0.20148727302572858	1.8864123778450894	-0.6530571372630931	-0.21004804515061656	1.7235117595537428	-0.6305553255313914	-0.22293866587734407	1.574736188799586	-0.6119928661741114	-0.18456463011114543	1.536068345895658	-0.6788089511084359	-0.18841334145678212	1.5413796560276454	-0.6958956574393328	-0.22822818392987632	1.5646232989617495	-0.5887088572669044	-0.2151787973323412	2.061241477263351	-0.5898104539948569	-0.18169382117829078	2.1304956111537963	-0.6341062476303572	-0.22746389761801183	2.058056787144543	-0.48860518216520327	-0.23082821802137282	1.964674398262679	-0.4569660401842617	-0.22135597704674786	1.8835029256727525	-0.43295066911977087	-0.20125115134895427	2.0632205764507994	-0.6853331910412298	-0.1939096928838834	1.9659067185991541	-0.7064856097134812	-0.19188386272964553	1.8815768453236765	-0.7236842870722889
14	0.4666666666666667	-0.21020676726828869	1.8821371447128763	-0.584685943210679	-0.21971073387908568	1.879867070709664	-0.5139919823073563	-0.22776642791120136	1.7256479460955134	-0.4721759662754568	-0.23147887601016748	1.5589380156197914	-0.4442401824839551	-0.19438878137162324	1.511102601312351	-0.4708121965734957	-0.20280280273022921	1.513497214420176	-0.4335746232242966	-0.24668756522355786	1.5523812118164233	-0.43634417936291964	-0.19945537435444619	1.883790570811981	-0.6549365148164038	-0.2102177319027117	1.7250901309245765	-0.6305538477931147	-0.22419117201454197	1.5734988464299595	-0.6146638472930241	-0.1846268579856242	1.5365055553815556	-0.6789086601264093	-0.18871923724830658	1.5428991363433646	-0.6956380309095694	-0.22900627234273502	1.5639271923692966	-0.59190194604466	-0.2151019874558307	2.0612800359894385	-0.5898790050488536	-0.1816571523620887	2.1305244744220913	-0.6341693998629659	-0.22550025440097168	2.0583301212725247	-0.4907845735424939	-0.23093908835102742	1.9636295307970058	-0.45693554716676216	-0.22180463786334953	1.8802325951994998	-0.4324859544124014	-0.1991747088643899	2.0644455263144614	-0.6879250881489802	-0.1927677502068432	1.9666743655247994	-0.7075708128741381	-0.1915365344972858	1.8795198602404821	-0.7236435820803198
